<svg t="1613791117118" class="icon" viewBox="0 0 1024 1024" version="1.1" xmlns="http://www.w3.org/2000/svg" p-id="2058" width="24" height="24"><path d="M917.333333 938.709333h-128a21.333333 21.333333 0 0 1 0-42.666666h128c35.285333 0 64-28.714667 64-64v-640c0-35.285333-28.714667-64-64-64h-128a21.333333 21.333333 0 0 1 0-42.666667h128c58.794667 0 106.666667 47.872 106.666667 106.666667v640c0 58.794667-47.872 106.666667-106.666667 106.666666z" fill="#000000" p-id="2059"></path><path d="M746.410667 170.709333c-23.893333 0-34.304-20.693333-40.533334-33.066666a168.234667 168.234667 0 0 0-2.389333-4.608c-0.853333 1.578667-1.664 3.242667-2.346667 4.608-6.186667 12.373333-16.597333 33.109333-40.448 33.109333-23.893333 0-34.261333-20.736-40.448-33.109333a143.488 143.488 0 0 0-2.218666-4.394667c-0.810667 1.493333-1.536 3.029333-2.176 4.352-6.186667 12.416-16.512 33.152-40.362667 33.152-23.850667 0-34.218667-20.736-40.405333-33.109333l-2.261334-4.437334a107.392 107.392 0 0 0-2.218666 4.437334c-6.186667 12.373333-16.554667 33.109333-40.405334 33.109333s-34.218667-20.736-40.405333-33.109333l-2.218667-4.437334a143.488 143.488 0 0 0-2.218666 4.394667c-6.186667 12.416-16.512 33.152-40.362667 33.152s-34.218667-20.778667-40.362667-33.194667l-2.218666-4.309333-2.218667 4.309333c-6.186667 12.416-16.554667 33.152-40.405333 33.152-23.850667 0-34.176-20.778667-40.32-33.152a91.690667 91.690667 0 0 0-5.290667-9.728 21.333333 21.333333 0 0 1 3.157333-42.453333c23.808 0 34.133333 20.736 40.32 33.152l2.261334 4.48c0.64-1.536 1.450667-3.157333 2.133333-4.48 6.186667-12.416 16.554667-33.109333 40.405333-33.109333s34.176 20.693333 40.32 33.109333l2.176 4.309333 2.218667-4.309333c6.186667-12.416 16.512-33.152 40.362667-33.152 23.850667 0 34.218667 20.736 40.448 33.109333l2.261333 4.437334 2.218667-4.437334c6.186667-12.373333 16.554667-33.109333 40.405333-33.109333s34.218667 20.736 40.405333 33.109333c0.64 1.322667 1.408 2.858667 2.218667 4.352 0.810667-1.493333 1.536-3.029333 2.176-4.352 6.186667-12.416 16.512-33.152 40.362667-33.152 23.850667 0 34.218667 20.736 40.448 33.109334l2.304 4.522666 2.304-4.48c6.229333-12.416 16.597333-33.109333 40.490666-33.109333s34.304 20.693333 40.533334 33.066667l2.389333 4.650666 2.389333-4.650666c6.229333-12.373333 16.64-33.066667 40.533334-33.066667a21.333333 21.333333 0 0 1 0 42.666667c2.346667 0.128-0.512 5.802667-2.389334 9.6-6.357333 12.373333-16.725333 33.066667-40.618666 33.066666z" fill="#000000" p-id="2060"></path><path d="M277.333333 938.709333h-170.666666a106.794667 106.794667 0 0 1-106.666667-106.666666v-640c0-58.794667 47.872-106.666667 106.666667-106.666667h170.666666a21.333333 21.333333 0 0 1 0 42.666667h-170.666666c-35.285333 0-64 28.714667-64 64v640c0 35.285333 28.714667 64 64 64h170.666666a21.333333 21.333333 0 0 1 0 42.666666z" fill="#000000" p-id="2061"></path><path d="M789.333333 938.709333c-23.850667 0-34.176-20.778667-40.32-33.152l-2.218666-4.437333c-0.64 1.536-1.450667 3.114667-2.133334 4.48-6.186667 12.416-16.554667 33.109333-40.405333 33.109333s-34.176-20.736-40.362667-33.152l-2.176-4.309333-2.176 4.309333c-6.186667 12.416-16.512 33.152-40.362666 33.152-23.850667 0-34.218667-20.736-40.448-33.109333l-2.261334-4.437333a143.488 143.488 0 0 0-2.218666 4.394666c-6.186667 12.416-16.554667 33.152-40.405334 33.152s-34.218667-20.736-40.405333-33.109333a106.581333 106.581333 0 0 0-2.218667-4.352c-0.810667 1.493333-1.536 3.029333-2.176 4.352-6.186667 12.416-16.512 33.152-40.362666 33.152-23.850667 0-34.218667-20.736-40.448-33.109333l-2.304-4.522667-2.346667 4.522667c-6.186667 12.373333-16.597333 33.109333-40.448 33.109333-23.893333 0-34.304-20.693333-40.533333-33.066667l-2.389334-4.650666-2.389333 4.650666c-6.229333 12.373333-16.64 33.066667-40.533333 33.066667a21.333333 21.333333 0 0 1 0-42.666667c-2.346667-0.128 0.512-5.802667 2.389333-9.6 6.229333-12.373333 16.64-33.066667 40.490667-33.066666s34.304 20.693333 40.533333 33.066666l2.346667 4.608 2.346666-4.565333c6.229333-12.416 16.597333-33.109333 40.490667-33.109333s34.261333 20.736 40.448 33.109333l2.218667 4.394667c0.810667-1.493333 1.536-3.029333 2.176-4.352 6.186667-12.416 16.512-33.152 40.362666-33.152 23.850667 0 34.218667 20.736 40.405334 33.109333l2.261333 4.437333 2.218667-4.437333c6.186667-12.416 16.554667-33.109333 40.362666-33.109333 23.850667 0 34.218667 20.736 40.448 33.109333l2.218667 4.394667 2.218667-4.394667c6.186667-12.416 16.512-33.152 40.362666-33.152s34.176 20.736 40.362667 33.152l2.218667 4.352c0.810667-1.493333 1.578667-3.029333 2.218666-4.352 6.186667-12.416 16.554667-33.152 40.405334-33.152 23.808 0 34.133333 20.736 40.32 33.152 1.536 3.072 3.712 7.466667 5.290666 9.728a21.333333 21.333333 0 0 1-3.072 42.453333zM256 298.709333H106.666667a21.333333 21.333333 0 0 1 0-42.666666H256a21.333333 21.333333 0 0 1 0 42.666666zM256 384.042667H106.666667a21.333333 21.333333 0 0 1 0-42.666667H256a21.333333 21.333333 0 0 1 0 42.666667zM256 469.376H106.666667a21.333333 21.333333 0 0 1 0-42.666667H256a21.333333 21.333333 0 0 1 0 42.666667zM256 682.709333H106.666667a21.333333 21.333333 0 0 1 0-42.666666H256a21.333333 21.333333 0 0 1 0 42.666666zM256 768.042667H106.666667a21.333333 21.333333 0 0 1 0-42.666667H256a21.333333 21.333333 0 0 1 0 42.666667z" fill="#000000" p-id="2062"></path><path d="M277.333333 938.709333a21.333333 21.333333 0 0 1-21.333333-21.333333v-810.666667a21.333333 21.333333 0 0 1 42.666667 0v810.666667a21.333333 21.333333 0 0 1-21.333334 21.333333zM405.333333 896.042667a21.333333 21.333333 0 0 1-21.333333-21.333334v-725.333333a21.333333 21.333333 0 0 1 42.666667 0v725.333333a21.333333 21.333333 0 0 1-21.333334 21.333334zM533.333333 938.709333a21.333333 21.333333 0 0 1-21.333333-21.333333v-810.666667a21.333333 21.333333 0 0 1 42.666667 0v810.666667a21.333333 21.333333 0 0 1-21.333334 21.333333zM661.333333 896.042667a21.333333 21.333333 0 0 1-21.333333-21.333334v-725.333333a21.333333 21.333333 0 0 1 42.666667 0v725.333333a21.333333 21.333333 0 0 1-21.333334 21.333334zM789.333333 938.709333a21.333333 21.333333 0 0 1-21.333333-21.333333v-810.666667a21.333333 21.333333 0 0 1 42.666667 0v810.666667a21.333333 21.333333 0 0 1-21.333334 21.333333zM917.333333 256.042667a20.053333 20.053333 0 0 1-14.933333-6.4 20.053333 20.053333 0 0 1-6.4-14.933334 21.376 21.376 0 0 1 42.666667 0c0 5.546667-2.133333 11.093333-6.4 14.933334a20.053333 20.053333 0 0 1-14.933334 6.4zM874.666667 341.376a20.053333 20.053333 0 0 1-14.933334-6.4 20.053333 20.053333 0 0 1-6.4-14.933333 21.376 21.376 0 0 1 42.666667 0 21.333333 21.333333 0 0 1-5.973333 14.933333c-4.266667 4.266667-9.813333 6.4-15.36 6.4zM917.333333 426.709333a20.053333 20.053333 0 0 1-14.933333-6.4 20.053333 20.053333 0 0 1-6.4-14.933333 21.376 21.376 0 0 1 42.666667 0c0 5.546667-2.133333 11.093333-6.4 14.933333a20.053333 20.053333 0 0 1-14.933334 6.4zM874.666667 512.042667a20.053333 20.053333 0 0 1-14.933334-6.4 20.053333 20.053333 0 0 1-6.4-14.933334 21.333333 21.333333 0 0 1 5.973334-14.933333c8.533333-8.106667 22.613333-8.106667 30.293333 0 4.266667 3.84 6.4 9.386667 6.4 14.933333 0 5.546667-2.133333 11.093333-6.4 14.933334a20.053333 20.053333 0 0 1-14.933333 6.4zM917.333333 597.376a20.053333 20.053333 0 0 1-14.933333-6.4 20.053333 20.053333 0 0 1-6.4-14.933333 21.376 21.376 0 0 1 42.666667 0c0 5.546667-2.133333 11.093333-6.4 14.933333a20.053333 20.053333 0 0 1-14.933334 6.4zM874.666667 682.709333a20.053333 20.053333 0 0 1-14.933334-6.4 20.053333 20.053333 0 0 1-6.4-14.933333 21.376 21.376 0 0 1 42.666667 0c0 5.546667-2.133333 11.093333-6.4 14.933333a20.053333 20.053333 0 0 1-14.933333 6.4zM917.333333 768.042667a20.053333 20.053333 0 0 1-14.933333-6.4 20.053333 20.053333 0 0 1-6.4-14.933334 21.376 21.376 0 0 1 42.666667 0 21.333333 21.333333 0 0 1-5.973334 14.933334c-4.266667 4.266667-9.813333 6.4-15.36 6.4zM874.666667 853.376a20.053333 20.053333 0 0 1-14.933334-6.4 20.053333 20.053333 0 0 1-6.4-14.933333 21.376 21.376 0 0 1 42.666667 0c0 5.546667-2.133333 11.093333-6.4 14.933333a20.053333 20.053333 0 0 1-14.933333 6.4z" fill="#000000" p-id="2063"></path></svg>
