<svg t="1614655927454" class="icon" viewBox="0 0 1024 1024" version="1.1" xmlns="http://www.w3.org/2000/svg" p-id="1291" width="24" height="24"><path d="M915.692308 393.846154h-807.384616c-15.753846 0-29.538462 13.784615-29.538461 29.538461V905.846154c0 43.323077 35.446154 78.769231 78.769231 78.769231h708.923076c43.323077 0 78.769231-35.446154 78.769231-78.769231V423.384615c0-15.753846-13.784615-29.538462-29.538461-29.538461zM374.153846 827.076923c0 11.815385-7.876923 19.692308-19.692308 19.692308h-78.76923c-11.815385 0-19.692308-7.876923-19.692308-19.692308v-78.769231c0-11.815385 7.876923-19.692308 19.692308-19.692307h78.76923c11.815385 0 19.692308 7.876923 19.692308 19.692307v78.769231z m0-196.923077c0 11.815385-7.876923 19.692308-19.692308 19.692308h-78.76923c-11.815385 0-19.692308-7.876923-19.692308-19.692308v-78.769231c0-11.815385 7.876923-19.692308 19.692308-19.692307h78.76923c11.815385 0 19.692308 7.876923 19.692308 19.692307v78.769231z m196.923077 196.923077c0 11.815385-7.876923 19.692308-19.692308 19.692308h-78.76923c-11.815385 0-19.692308-7.876923-19.692308-19.692308v-78.769231c0-11.815385 7.876923-19.692308 19.692308-19.692307h78.76923c11.815385 0 19.692308 7.876923 19.692308 19.692307v78.769231z m0-196.923077c0 11.815385-7.876923 19.692308-19.692308 19.692308h-78.76923c-11.815385 0-19.692308-7.876923-19.692308-19.692308v-78.769231c0-11.815385 7.876923-19.692308 19.692308-19.692307h78.76923c11.815385 0 19.692308 7.876923 19.692308 19.692307v78.769231z m196.923077 196.923077c0 11.815385-7.876923 19.692308-19.692308 19.692308h-78.76923c-11.815385 0-19.692308-7.876923-19.692308-19.692308v-78.769231c0-11.815385 7.876923-19.692308 19.692308-19.692307h78.76923c11.815385 0 19.692308 7.876923 19.692308 19.692307v78.769231z m0-196.923077c0 11.815385-7.876923 19.692308-19.692308 19.692308h-78.76923c-11.815385 0-19.692308-7.876923-19.692308-19.692308v-78.769231c0-11.815385 7.876923-19.692308 19.692308-19.692307h78.76923c11.815385 0 19.692308 7.876923 19.692308 19.692307v78.769231z m98.461538-492.307692h-98.461538V98.461538c0-31.507692-25.6-59.076923-59.076923-59.076923-31.507692 0-59.076923 25.6-59.076923 59.076923v39.384616H374.153846V98.461538c0-31.507692-25.6-59.076923-59.076923-59.076923-31.507692 0-59.076923 25.6-59.076923 59.076923v39.384616H157.538462c-43.323077 0-78.769231 35.446154-78.769231 78.769231v49.230769c0 15.753846 13.784615 29.538462 29.538461 29.538461h807.384616c15.753846 0 29.538462-13.784615 29.538461-29.538461V216.615385c0-43.323077-35.446154-78.769231-78.769231-78.769231z" p-id="1292"></path></svg>
